#!OML:ASF F:\VICON\USERDATA\INSTALL\rory3\rory3.ASF
:FULLY-SPECIFIED
:DEGREES
99
root 1.3500981424575176 17.88433366986461 52.91064538035618 -4.073991542875856 2.7445009118374655 0.731173617352797
lfemur -1.6383231644370158 -3.9296186062807075 -24.99164612832199
ltibia 22.11542275929539
lfoot -8.442403776553778 -3.5696508603482027
ltoes -14.762213609571104
rfemur -21.398629080477406 -2.2648309579399264 20.570393413818607
rtibia 63.742373100577666
rfoot -6.750579193170082 -6.074906907084154
rtoes 3.981024873195719
lowerback nan -0.4614217420109519 -1.9594828819010999
upperback -0.1432607039800855 -0.9127791140602113 0.8407580737453475
thorax -5.989245187809175 -0.3816335892530026 1.9355136898589813
lowerneck -16.63252253382733 -3.7987901506601656 -1.584271551038562
upperneck 21.29762182703694 -5.355884846216268 2.450700411176081
head 9.708557539139177 -2.35157261893088 0.41078506033489254
lclavicle -2.5741080145540355e-15 -2.7787697880532278e-15
lhumerus -26.675463176533892 0.13863358463988318 81.40258904156208
lradius 27.576951469459143
lwrist 8.006583580297189
lhand -29.412917039382698 18.989394439370663
lfingers nan
lthumb -2.635251738956055 49.2406841701837
rclavicle -2.525381887518684e-15 -2.7494618707078756e-15
rhumerus -30.25997321149578 -19.50432304628423 -77.10528211911169
rradius 31.35632901336472
rwrist 2.3539305102517627
rhand -18.03159351909769 nan
rfingers nan
rthumb 8.703005818133757 -7.3886705587763135
100
root 1.3615532824155359 17.878841407830905 53.221431205437455 -3.9723918093145976 2.321608080610562 0.9976353590310896
lfemur 1.8571816239030063 -4.133458594619114 -25.497118387769905
ltibia 20.973931095063428
lfoot -7.275343579526427 -4.748303181591061
ltoes -13.691735619613459
rfemur -23.92609380612207 -2.1421780970447815 20.40404510741583
rtibia 62.72803987652316
rfoot -7.132805238129458 -5.44346947048898
rtoes 2.8163678320772987
lowerback nan -0.7971294096484551 -2.427965776415271
upperback -0.16909362572258166 -1.3988185799701798 0.9163372576394394
thorax -6.009599977210994 -0.6226239349623208 2.489413054845685
lowerneck -16.73524657414167 -3.709820998019007 -1.5997360083226706
upperneck 21.31464535911628 -5.189360103229673 2.4012339358957497
head 9.72736086210736 -2.293206405662596 0.42769897733127094
lclavicle -2.5762017509455062e-15 -2.7772815212123827e-15
lhumerus -26.49425971507389 -0.40041591415850997 81.30027817446927
lradius 27.506351798266724
lwrist 8.043808204331155
lhand -29.343856796835375 19.18105339369075
lfingers nan
lthumb -2.594404573855784 49.35620526035237
rclavicle -2.5262848734587366e-15 -2.7480419909232063e-15
rhumerus -30.371407200236558 -19.620441524290108 -77.29085001670897
rradius 31.19288185098158
rwrist 2.317397504213248
rhand -18.03542215998967 nan
rfingers nan
rthumb 8.727061700238057 -7.3210214715701625
101
root 1.3696061420185361 17.876555841930596 53.674668372879744 -3.787480664290328 1.8059411986874456 1.000031483783141
lfemur 5.104630597525656 -4.233560737377838 -25.67205903378531
ltibia 19.960067322239787
lfoot -5.77781041657308 -5.748915138834155
ltoes -13.55703391677954
rfemur -25.404376289049885 -1.5264250900739822 20.892806371599708
rtibia 60.13794614782343
rfoot -7.291767517735458 -5.178184067499102
rtoes 1.7952975299237504
lowerback nan -1.1572699003796063 -2.699036272339521
upperback -0.21561234275806065 -1.8892256346252105 1.0490034206695997
thorax -6.0294524382969605 -0.8695579069221503 3.0205837497904833
lowerneck -16.804855072193163 -3.59939517456409 -1.6332022145155678
upperneck 21.39564293989293 -4.982455207993649 2.2973085228469747
head 9.754929231783134 -2.2224981935185735 0.4377555079901856
lclavicle -2.577682218442448e-15 -2.7760122911735634e-15
lhumerus -26.438135592800567 -0.7032523168426832 81.21936667192125
lradius 27.305440865911127
lwrist 8.176218635066839
lhand -29.253934932743924 19.326510137882288
lfingers nan
lthumb -2.490482225126345 49.55162202217078
rclavicle -2.5280165648984435e-15 -2.7475107295149663e-15
rhumerus -30.50959729952045 -19.695130059688026 -77.44614538480207
rradius 31.073115883387104
rwrist 2.2605026723846686
rhand -18.03088395163932 nan
rfingers nan
rthumb 8.705271370481977 -7.354007658083585
102
root 1.3818770761468087 17.874637290152542 54.084474492172944 -3.723616839774788 1.20570459995949 1.4720793949458169
lfemur 8.312472935670318 -4.22638913400244 -26.152807272705118
ltibia 18.9366674073802
lfoot -3.7334169105646793 -6.880267308192709
ltoes -12.567166139213377
rfemur -25.928458650763183 -1.0130867225343083 20.77107843968074
rtibia 56.328562363829235
rfoot -7.360034280340893 -4.9977596216855025
rtoes 1.0064761507590287
lowerback nan -1.470147396272996 -3.317179701132795
upperback -0.23526952271658796 -2.358339321652801 1.139894162579015
thorax -5.987550223860469 -1.0966299593194824 3.552416737869506
lowerneck -16.826233254705215 -3.4739324453505445 -1.699670573758776
upperneck 21.546397516689982 -4.746655057572933 2.150214588462627
head 9.795805718709271 -2.142031080333345 0.4423114444621413
lclavicle -2.5778837048089534e-15 -2.7741482995323726e-15
lhumerus -26.560922481975744 -0.7493876440193428 81.16142584073233
lradius 26.95234129307888
lwrist 8.318764393679034
lhand -29.19998852811826 19.29598600390661
lfingers nan
lthumb -2.455678109769706 49.48684390555756
rclavicle -2.529798172129665e-15 -2.7471168288021085e-15
rhumerus -30.687451717565136 -19.762317507054934 -77.52937174841898
rradius 30.99749382010024
rwrist 2.186512013574506
rhand -18.034215923695808 nan
rfingers nan
rthumb 8.730506273690397 -7.287013114922348
